<svg data-v-423bf9ae="" xmlns="http://www.w3.org/2000/svg" viewBox="0 0 442 90" class="iconLeft"><!----><!----><!----><g data-v-423bf9ae="" id="3de34b76-a05a-4819-b493-b5517c4ba155" fill="black" transform="matrix(5.439710013831304,0,0,5.439710013831304,133.16602767707664,17.284676925687275)"><path d="M4.87 0.81C5.66 0.81 6.29 1.68 6.29 3.35C6.29 7.04 4.69 8.83 3.47 8.83C2.45 8.83 2.02 7.66 2.02 6.22C2.02 3.89 3.18 0.81 4.87 0.81ZM2.83 10.61C5.77 10.61 7.55 6.64 7.55 3.33C7.55 1.39 6.72-0.28 4.79-0.28C1.78-0.28 0.04 3.46 0.04 6.52C0.04 8.72 0.92 10.61 2.83 10.61ZM9.86 4.20C9.98 3.67 9.69 3.43 9.18 3.43C8.60 3.43 8.09 3.72 7.62 4.10C7.34 4.33 7.43 4.76 7.62 4.87C7.74 4.76 7.83 4.70 7.90 4.70C8.02 4.70 8.09 4.83 8.04 5.05L6.89 10.43C7.06 10.54 7.29 10.61 7.55 10.61C8.05 10.61 8.58 10.37 8.72 9.73L9.58 5.74C9.95 5.29 10.36 5.01 10.86 5.01C11.33 5.01 11.30 5.39 11.20 5.84L10.22 10.43C10.39 10.54 10.63 10.61 10.88 10.61C11.38 10.61 11.91 10.37 12.05 9.73L12.92 5.66C13.29 5.26 13.66 5.01 14.14 5.01C14.60 5.01 14.59 5.39 14.48 5.84L13.89 8.62C13.54 10.26 14.28 10.61 14.98 10.61C15.92 10.61 16.86 9.97 17.51 9.23C17.60 9.13 17.64 9.02 17.64 8.92C17.64 8.78 17.56 8.65 17.40 8.58C17.05 8.93 16.45 9.28 15.93 9.28C15.65 9.28 15.47 9.11 15.55 8.71L16.24 5.49C16.60 3.85 15.69 3.43 15.06 3.43C14.25 3.43 13.55 4.03 12.96 4.87C13.01 3.88 12.36 3.43 11.79 3.43C10.99 3.43 10.29 4.00 9.72 4.83ZM17.60 4.87C17.72 4.76 17.81 4.70 17.88 4.70C18.00 4.70 18.07 4.83 18.02 5.05L16.87 10.43C17.04 10.54 17.28 10.61 17.53 10.61C18.03 10.61 18.56 10.37 18.70 9.73L19.56 5.74C19.87 5.36 20.43 5.01 20.80 5.01C21.11 5.01 21.31 5.25 21.18 5.84L20.59 8.62C20.24 10.26 20.99 10.61 21.69 10.61C22.62 10.61 23.56 9.97 24.22 9.23C24.30 9.13 24.35 9.02 24.35 8.92C24.35 8.78 24.26 8.65 24.11 8.58C23.76 8.93 23.16 9.28 22.64 9.28C22.36 9.28 22.18 9.11 22.26 8.71L22.95 5.49C23.27 4.02 22.74 3.43 21.99 3.43C21.18 3.43 20.29 3.99 19.70 4.83L19.84 4.20C19.96 3.67 19.67 3.43 19.17 3.43C18.58 3.43 18.07 3.72 17.60 4.10C17.32 4.33 17.42 4.76 17.60 4.87ZM25.19 1.62C25.10 2.17 25.51 2.60 26.05 2.60C26.60 2.60 27.06 2.17 27.15 1.62C27.20 1.08 26.80 0.64 26.25 0.64C25.70 0.64 25.24 1.08 25.19 1.62ZM23.91 8.95C23.65 10.22 24.46 10.61 25.16 10.61C26.10 10.61 27.03 9.97 27.69 9.23C27.78 9.13 27.82 9.02 27.82 8.92C27.82 8.78 27.73 8.65 27.58 8.58C27.23 8.93 26.63 9.28 26.11 9.28C25.75 9.28 25.52 9.03 25.69 8.25L26.54 4.20C26.66 3.67 26.38 3.43 25.87 3.43C25.28 3.43 24.78 3.72 24.30 4.10C24.02 4.33 24.12 4.76 24.30 4.87C24.43 4.76 24.51 4.70 24.58 4.70C24.71 4.70 24.77 4.83 24.72 5.05ZM33.63 0.48L33.70 0.48C31.65 7.31 30.24 9.03 29.13 9.45L29.13 9.32C29.13 9.00 29.19 8.43 29.43 7.88C29.23 7.73 28.98 7.64 28.73 7.64C28.10 7.64 27.54 7.88 27.54 8.69C27.54 9.94 28.04 10.61 28.74 10.61C30.41 10.61 31.88 8.62 33.77 2.59L33.70 4.23L33.19 10.43C33.36 10.54 33.61 10.61 33.87 10.61C34.38 10.61 34.80 10.43 35.06 9.79L38.11 2.62L37.17 8.95C36.97 10.23 37.80 10.61 38.57 10.61C39.38 10.61 40.21 10.02 40.98 9.23C41.06 9.13 41.10 9.02 41.10 8.92C41.10 8.78 41.02 8.65 40.87 8.58C40.54 8.86 39.89 9.28 39.44 9.28C39.06 9.28 38.86 9.07 38.98 8.25L40.12 0.18C39.96 0.07 39.61 0 39.35 0C38.84 0 38.40 0.27 38.15 0.90L34.90 8.22L35.41 0.77L35.42 0.77C35.74 0.77 35.91 0.49 35.91 0.22C35.91 0.08 35.85-0.06 35.71-0.14C35.11 0.20 33.92-0.42 32.76-0.42C31.11-0.42 30.44 0.59 30.44 1.47C30.44 2.17 30.86 2.80 31.57 2.80C31.77 2.80 31.96 2.76 32.17 2.66C32.00 2.46 31.89 2.16 31.89 1.85C31.89 1.19 32.35 0.48 33.63 0.48ZM44.24 3.37C42.29 3.37 40.71 5.81 40.71 8.26C40.71 9.16 41.01 10.61 42.46 10.61C43.26 10.61 44.00 10.02 44.59 9.20C44.58 10.30 45.23 10.61 45.89 10.61C46.65 10.61 47.66 9.97 48.31 9.23C48.40 9.13 48.44 9.02 48.44 8.92C48.44 8.78 48.36 8.65 48.20 8.58C47.85 8.93 47.25 9.28 46.73 9.28C46.37 9.28 46.14 9.03 46.31 8.25L47.29 3.61C47.12 3.50 46.89 3.43 46.63 3.43C46.28 3.43 45.92 3.56 45.68 3.84C45.33 3.53 44.87 3.37 44.24 3.37ZM44.62 8.29C44.24 8.81 43.65 9.17 43.20 9.17C42.77 9.17 42.45 8.86 42.45 8.16C42.45 6.64 43.05 4.42 44.74 4.42C44.95 4.42 45.16 4.45 45.40 4.54ZM49.28 1.62C49.20 2.17 49.60 2.60 50.15 2.60C50.69 2.60 51.16 2.17 51.24 1.62C51.30 1.08 50.89 0.64 50.34 0.64C49.80 0.64 49.34 1.08 49.28 1.62ZM48.01 8.95C47.74 10.22 48.55 10.61 49.25 10.61C50.19 10.61 51.13 9.97 51.79 9.23C51.87 9.13 51.91 9.02 51.91 8.92C51.91 8.78 51.83 8.65 51.67 8.58C51.32 8.93 50.72 9.28 50.20 9.28C49.84 9.28 49.62 9.03 49.78 8.25L50.64 4.20C50.75 3.67 50.47 3.43 49.97 3.43C49.38 3.43 48.87 3.72 48.40 4.10C48.12 4.33 48.22 4.76 48.40 4.87C48.52 4.76 48.61 4.70 48.68 4.70C48.80 4.70 48.86 4.83 48.82 5.05ZM56.57 8.33C56.67 8.06 56.50 7.76 56.24 7.80C55.97 8.57 54.85 9.25 54.08 9.25C53.59 9.25 53.23 8.97 53.33 8.25C53.34 8.08 53.37 7.90 53.40 7.73C55.20 4.97 56.11 2.73 56.11 1.64C56.11 0.91 55.65 0.50 54.99 0.50C53.16 0.50 52.22 3.47 51.58 8.54C51.39 10.01 52.14 10.61 53.12 10.61C54.40 10.61 56.08 9.60 56.57 8.33ZM55.09 1.43C55.24 1.43 55.33 1.50 55.33 1.74C55.33 2.21 54.81 4.20 53.58 6.48C54.05 3.53 54.63 1.43 55.09 1.43Z"></path></g><!----><g data-v-423bf9ae="" id="7c879988-9ee4-4ffd-9d98-87635f3938d3" transform="matrix(1.1691804443993372,0,0,1.1691804443993372,-1.9897311523693446,-14.175153033016521)" stroke="none" fill="black"><path d="M28.696 37.22a4.55 4.55 0 01-4.55 4.546H13.537a4.554 4.554 0 01-4.55-4.546c0-2.51 2.041-4.55 4.55-4.55h10.609c2.514 0 4.55 2.04 4.55 4.55zM40.332 53.107a4.55 4.55 0 01-4.55 4.546H25.173a4.554 4.554 0 01-4.55-4.546c0-2.51 2.041-4.55 4.55-4.55h10.609a4.552 4.552 0 014.55 4.55zM51.239 68.996a4.55 4.55 0 01-4.55 4.546H36.08a4.554 4.554 0 01-4.55-4.546 4.555 4.555 0 014.55-4.551h10.609a4.552 4.552 0 014.55 4.551z"></path><path d="M83.101 12.878H17.026c-.038 0-.068-.021-.106-.021H6.311a4.555 4.555 0 00-4.55 4.55 4.554 4.554 0 004.55 4.546H24.504l23.268 23.574c6.059 6.14 15.973 6.203 22.112.145l19.429-19.173c.209.639.35 1.308.35 2.015v45.683a6.57 6.57 0 01-6.562 6.562H55.624c-.072-.005-.133-.043-.209-.043H44.806a4.555 4.555 0 00-4.55 4.551 4.554 4.554 0 004.55 4.546h2.625v.021h35.67c8.624 0 15.637-7.013 15.637-15.636V28.514c-.001-8.623-7.013-15.636-15.637-15.636zm-19.59 26.335c-2.574 2.543-6.741 2.514-9.28-.06l-16.979-17.2h43.744l-17.485 17.26z"></path></g><!----></svg>