<svg xmlns="http://www.w3.org/2000/svg" viewBox="0 0 300 300">
  <defs>
    <linearGradient id="grad" gradientTransform="rotate(25)" x1="0%" y1="0%" x2="100%" y2="0%">
      <stop offset="0%" stop-color="#4E1A70" stop-opacity="1"></stop>
      <stop offset="100%" stop-color="#2B4CF2" stop-opacity="1"></stop>
    </linearGradient>
  </defs>
  <g fill="url(#grad)" transform="matrix(0.5748,0,0,0.5748,38.99,120.49)">
    <path d="M28.696 37.22a4.55 4.55 0 01-4.55 4.546H13.537a4.554 4.554 0 01-4.55-4.546c0-2.51 2.041-4.55 4.55-4.55h10.609c2.514 0 4.55 2.04 4.55 4.55zM40.332 53.107a4.55 4.55 0 01-4.55 4.546H25.173a4.554 4.554 0 01-4.55-4.546c0-2.51 2.041-4.55 4.55-4.55h10.609a4.552 4.552 0 014.55 4.55zM51.239 68.996a4.55 4.55 0 01-4.55 4.546H36.08a4.554 4.554 0 01-4.55-4.546 4.555 4.555 0 014.55-4.551h10.609a4.552 4.552 0 014.55 4.551z"></path>
    <path d="M83.101 12.878H17.026c-.038 0-.068-.021-.106-.021H6.311a4.555 4.555 0 00-4.55 4.55 4.554 4.554 0 004.55 4.546H24.504l23.268 23.574c6.059 6.14 15.973 6.203 22.112.145l19.429-19.173c.209.639.35 1.308.35 2.015v45.683a6.57 6.57 0 01-6.562 6.562H55.624c-.072-.005-.133-.043-.209-.043H44.806a4.555 4.555 0 00-4.55 4.551 4.554 4.554 0 004.55 4.546h2.625v.021h35.67c8.624 0 15.637-7.013 15.637-15.636V28.514c-.001-8.623-7.013-15.636-15.637-15.636zm-19.59 26.335c-2.574 2.543-6.741 2.514-9.28-.06l-16.979-17.2h43.744l-17.485 17.26z"></path>
  </g>
</svg>
